<svg id="Layer_1" data-name="Layer 1" xmlns="http://www.w3.org/2000/svg" viewBox="0 0 610.3 208.8"><defs><style>.cls-1{fill:#1596d3;}.cls-2{fill:#fff;}.cls-3{isolation:isolate;}</style></defs><title>se-logo-tm-v2</title><path class="cls-1" d="M191.6,404.5a95.8,95.8,0,1,1-95.8-95.8A95.81,95.81,0,0,1,191.6,404.5Z" transform="translate(0 -291.5)"/><path class="cls-2" d="M127.6,399.8c8.2-4.8,8.4-12.3,8.4-13.3h0l6.7,31.9,6.7-31.9h0a25.86,25.86,0,0,1,6,15.9c0.2,7,8.7,13.1,15.4,9.2,0,0-10.4-1.2-7-14.3,2.4-9.2-2.9-14.7-3.6-15.4h0l27.3,17.9-17.9-27.3h0a25.83,25.83,0,0,1,15.4,7c5,5,15.4,3.1,17.4-4.3,0,0-8.2,6.5-15-5.1-4.8-8.2-12.5-8.4-13.3-8.4h0L206,355l-31.9-6.7h0a25.86,25.86,0,0,1,15.9-6c7-.2,13.1-8.7,9.2-15.4,0,0-1.2,10.4-14.3,7-9.2-2.4-14.7,2.9-15.4,3.6h0l17.9-27.3L165,324.7l-5.1,3.2h0a25.83,25.83,0,0,1,7-15.4c5-5.1,3.1-15.5-4.3-17.4,0,0,6.5,8.2-5.3,15-8.2,4.8-8.4,12.5-8.4,13.3h0l-6.1-31.9-6.7,31.9h0a26.17,26.17,0,0,1-6-15.9c-0.2-7-8.7-13.1-15.4-9.2,0,0,10.4,1.2,7,14.3-2.4,9.2,2.9,14.7,3.6,15.4h0L98,310.1l17.9,27.3a25.83,25.83,0,0,1-15.4-7c-5.1-5-15.4-3.1-17.4,4.3,0,0,8.2-6.5,15,5.3,4.8,8.2,12.5,8.4,13.3,8.4h0l-31.9,6.7,31.8,6.5h0a26.53,26.53,0,0,1-15.9,6c-7,.2-13.1,8.7-9.2,15.4,0,0,1.2-10.4,14.3-7,9.2,2.4,14.7-2.9,15.4-3.6h0L98,399.7l14.5-9.4,13-8.4a25.83,25.83,0,0,1-7,15.4c-5,5.1-3.1,15.5,4.3,17.4-0.5.2-7-8,4.8-14.9" transform="translate(0 -291.5)"/><path class="cls-2" d="M239.7,343.2c-1-3.4-2.4-7.2-7.2-7.2a5.68,5.68,0,0,0-6.1,5.8c0,3.9,2.7,5.6,7,7.9s9.6,4.6,9.6,10.6c0,5.6-5,10.1-12.3,10.1a19.67,19.67,0,0,1-5.5-.9,15.12,15.12,0,0,1-2.7-1.2,49.92,49.92,0,0,1-1.5-8.4l1.5-.3c0.9,3.2,3.4,8.7,9.1,8.7,4.1,0,6.7-2.6,6.7-6.5s-3.1-5.8-7.2-8c-3.6-1.9-9.2-4.4-9.2-10.6,0-5.1,4.3-9.6,11.4-9.6a21.34,21.34,0,0,1,7,1.2c0.2,1.9.5,3.9,1,7.3Z" transform="translate(0 -291.5)"/><path class="cls-2" d="M277,369.8v-1.4c3.2-.3,3.9-0.5,3.9-4.3v-8.9c0-3.8-1.4-6.1-5-6.1a9.78,9.78,0,0,0-6.1,2.7,7.16,7.16,0,0,1,.2,2.2v10.4c0,3.4.5,3.8,3.6,3.9v1.4H261.8v-1.4c3.4-.3,3.9-0.5,3.9-4.1V355c0-3.9-1.4-6.1-4.8-6.1-2.2,0-4.4,1.4-6,2.7v12.6c0,3.4.5,3.8,3.1,4.1v1.4H246.4v-1.4c3.6-.3,4.1-0.7,4.1-4.1V353.1c0-3.4-.2-3.8-3.4-4.1v-1.2a44.55,44.55,0,0,0,7.7-2.2v4.3c1.2-.7,2.4-1.7,4.1-2.7a7.84,7.84,0,0,1,4.6-1.4,6.26,6.26,0,0,1,6.1,4.4,53.14,53.14,0,0,1,4.6-3.1,8.38,8.38,0,0,1,4.1-1.4c4.3,0,7,2.9,7,8.2v10.2c0,3.6.5,3.8,3.6,4.1v1.4H277v0.2Z" transform="translate(0 -291.5)"/><path class="cls-2" d="M291.8,369.8v-1.4c3.4-.3,3.9-0.7,3.9-4.3V353.2c0-3.2-.2-3.6-3.4-4.1v-1.4a53.53,53.53,0,0,0,7.9-2v18.4c0,3.6.3,3.9,3.9,4.3v1.4H291.8Zm2.9-31.4a2.87,2.87,0,0,1,2.9-2.7,2.69,2.69,0,0,1,2.7,2.7A2.8,2.8,0,0,1,294.7,338.4Z" transform="translate(0 -291.5)"/><path class="cls-2" d="M316.9,369.8a6,6,0,0,1-2.4.7c-3.4,0-5.5-2.2-5.5-6.3V348.7h-3.8l-0.2-.5,1.5-1.5h2.6v-3.9l3.6-3.6,0.9,0.2v7.2h6.3a1.43,1.43,0,0,1-.3,2h-6v13.7c0,4.3,1.9,5.1,3.2,5.1a7.66,7.66,0,0,0,3.4-.9l0.5,1.4Z" transform="translate(0 -291.5)"/><path class="cls-2" d="M338.3,369.8v-1.4c3.2-.3,3.6-0.7,3.6-4.1v-8.9c0-4.4-1.7-6.5-5.5-6.5a8.11,8.11,0,0,0-5.8,2.7v12.6c0,3.4.3,3.8,3.6,4.1v1.4H322.4v-1.4c3.2-.3,3.8-0.5,3.8-4.1V338.8c0-3.4-.2-3.6-3.8-3.9v-1.2a47,47,0,0,0,8.2-1.9v17.9c1.9-1.9,5-3.9,7.9-3.9,4.4,0,7.7,2.7,7.7,9.2v9.4c0,3.6.3,3.9,3.6,4.1v1.4H338.4v-0.1h-0.1Z" transform="translate(0 -291.5)"/><path class="cls-2" d="M367,352.7c-1-3.1-3.1-5.3-5.6-5.3a3.58,3.58,0,0,0-3.6,3.8c0,2.4,2.2,3.6,4.8,4.6,4.1,1.7,7,3.6,7,7.3,0,4.8-4.8,7.3-9.2,7.3a10.19,10.19,0,0,1-6.3-1.9,28.49,28.49,0,0,1-.9-6.3l1.4-.3c1,3.6,3.4,6.7,6.8,6.7a3.82,3.82,0,0,0,3.9-3.8c0-2.4-1.5-3.6-4.4-4.8-3.2-1.5-7-3.2-7-7.3,0-3.8,3.2-6.8,8.4-6.8a14.91,14.91,0,0,1,5,.9,37.33,37.33,0,0,1,1.2,5.6Z" transform="translate(0 -291.5)"/><path class="cls-2" d="M397.5,357.7c0,8.5-6.5,12.6-12,12.6a11.76,11.76,0,0,1-12.1-11.8,12.37,12.37,0,0,1,12.1-12.8A12,12,0,0,1,397.5,357.7Zm-18.9-.7c0,6.7,3.1,11.8,7.5,11.8,3.4,0,6.3-2.4,6.3-9.7,0-6.3-2.6-11.3-7.3-11.3C381.6,347.6,378.6,350.8,378.6,357Z" transform="translate(0 -291.5)"/><path class="cls-2" d="M416.5,369.8v-1.4c3.2-.3,3.6-0.7,3.6-4.4v-8.9c0-3.8-1.4-6.1-5.1-6.1-2.2,0-4.4,1.4-6,2.7v12.6c0,3.6.3,3.9,3.6,4.1v1.4h-12v-1.4c3.8-.3,4.1-0.7,4.1-4.1V353.2c0-3.4-.3-3.6-3.2-4.1v-1.2a38.06,38.06,0,0,0,7.7-2.2V350c1-.9,2.4-1.5,3.8-2.6a8.37,8.37,0,0,1,4.6-1.5c4.4,0,7.2,2.9,7.2,8.2v10.2c0,3.6.3,3.9,3.4,4.1v1.4H416.5Z" transform="translate(0 -291.5)"/><path class="cls-2" d="M431,369.8v-1.4c3.4-.3,3.9-0.7,3.9-4.3V353.2c0-3.2-.2-3.6-3.4-4.1v-1.4a53.53,53.53,0,0,0,7.9-2v18.4c0,3.6.3,3.9,3.9,4.3v1.4H431Zm2.9-31.4a2.87,2.87,0,0,1,2.9-2.7,2.69,2.69,0,0,1,2.7,2.7A2.8,2.8,0,0,1,433.9,338.4Z" transform="translate(0 -291.5)"/><path class="cls-2" d="M463.6,370.5a4.61,4.61,0,0,1-2.6-1,7.22,7.22,0,0,1-1.4-2.4c-2.2,1.4-5,3.4-6.5,3.4a6.6,6.6,0,0,1-6.7-6.5c0-2.6,1.4-4.3,4.4-5.3a49,49,0,0,0,8.5-3.4v-1c0-3.9-1.9-6-4.6-6a3.54,3.54,0,0,0-2.6,1,8.6,8.6,0,0,0-1.7,3.6,1.46,1.46,0,0,1-1.5,1.2,2.56,2.56,0,0,1-2.4-2.2c0-.9.7-1.4,1.7-2.2a27.68,27.68,0,0,1,8.4-3.8,8.3,8.3,0,0,1,4.6,1.4c1.9,1.5,2.6,3.8,2.6,6.5v9.9c0,2.4,1,3.2,1.9,3.2a6.53,6.53,0,0,0,2-.5l0.5,1.4ZM459.5,357c-1.2.5-3.8,1.7-5,2.2-2.2,1-3.4,2-3.4,3.9a4,4,0,0,0,3.9,4.1,8,8,0,0,0,4.4-1.9V357h0.1Z" transform="translate(0 -291.5)"/><path class="cls-2" d="M485.5,369.8v-1.4c3.2-.3,3.6-0.7,3.6-4.4v-8.9c0-3.8-1.4-6.1-5.1-6.1-2.2,0-4.4,1.4-6,2.7v12.6c0,3.6.3,3.9,3.6,4.1v1.4h-12v-1.4c3.8-.3,4.1-0.7,4.1-4.1V353.2c0-3.4-.3-3.6-3.2-4.1v-1.2a38.06,38.06,0,0,0,7.7-2.2V350c1-.9,2.4-1.5,3.8-2.6a8.37,8.37,0,0,1,4.6-1.5c4.4,0,7.2,2.9,7.2,8.2v10.2c0,3.6.3,3.9,3.4,4.1v1.4H485.5Z" transform="translate(0 -291.5)"/><path class="cls-2" d="M251.4,395.6c-22,0-39.3,19-39.3,43.2v0.3c0,24.6,17.4,43.2,40.6,43.2,13.8,0,24.1-4.6,34.2-15.5l0.7-.7-6.8-6.1-0.7.7c-7.9,8.4-16.4,12.3-27,12.3-16.4,0-28.9-12.3-30.6-29.9h66.8l0.2-.9a17.74,17.74,0,0,0,.2-3.2C289.4,413.3,273.7,395.6,251.4,395.6Zm-0.4,9.2c18.6,0,26.6,15.5,27.8,29.4H222.3C224,416.9,236,404.8,251,404.8Z" transform="translate(0 -291.5)"/><path class="cls-2" d="M337.4,396.3c-12.3,0-21.5,3.6-29,7l-0.9.3,3.6,8.7,1-.5a52.3,52.3,0,0,1,24.9-6.3c16.6,0,25.6,8.4,25.6,23.7v2.2a97.64,97.64,0,0,0-25.8-3.2c-22.4,0-36.4,10.4-36.4,27.3v0.3c0,8,3.6,14.9,10.4,19.8,5.8,4.1,13.8,6.5,21.9,6.5a38.23,38.23,0,0,0,29.9-13.5v11.6h9.6V428.8c0-10.1-2.7-17.8-8.5-23.6C357.7,399.3,348.7,396.3,337.4,396.3Zm-4.2,76.6c-11.1,0-22.4-6-22.4-17.6V455c0-11.1,9.6-17.9,25.6-17.9a103.63,103.63,0,0,1,26.5,3.4v8.4C362.9,462.7,350.1,472.9,333.2,472.9Z" transform="translate(0 -291.5)"/><path class="cls-2" d="M398.4,417.3V397.5h-9.7v82.8h9.7V446.1c0-27.2,17.1-39.4,34-39.4h1.9V396.1h-1C418.9,395.6,405.9,403.6,398.4,417.3Z" transform="translate(0 -291.5)"/><path class="cls-2" d="M467.4,381.1h-9.7v16.4H445.9v9.1h11.8v51.9c0,14.5,8.9,23.2,23.7,23.2a30.62,30.62,0,0,0,13.5-2.9l0.5-.3V469l-1.4.7a25.83,25.83,0,0,1-11.4,2.7c-10.1,0-15.2-5-15.2-14.7V406.6h28.3v-9.1H467.4V381.1h0Z" transform="translate(0 -291.5)"/><path class="cls-2" d="M551.4,395.6c-12.1,0-21.5,4.8-28.2,14.5V364.2h-9.7V480.3h9.7V432.5c0-15.9,11.6-27.8,27-27.8s24.6,9.9,24.6,26.6v49h9.7V429.9C584.7,409.1,571.7,395.6,551.4,395.6Z" transform="translate(0 -291.5)"/><g class="cls-3"><path class="cls-2" d="M602.3,472.8v1.3h-2.2v6.1h-1.6v-6.1h-2.2v-1.3h6Z" transform="translate(0 -291.5)"/><path class="cls-2" d="M608.1,472.8h2.2v7.4h-1.4V474l-1.4,6.2H606l-1.4-6.2v6.2h-1.4v-7.4h2.2l1.3,5.8Z" transform="translate(0 -291.5)"/></g></svg>